<?xml version="1.0" encoding="UTF-8"?>
<svg id="Layer_2" xmlns="http://www.w3.org/2000/svg" xmlns:xlink="http://www.w3.org/1999/xlink" viewBox="0 0 1452.18 567">
  <defs>
    <style>
      .cls-1 {
        fill: none;
      }

      .cls-2 {
        fill: #d5fdfe;
      }

      .cls-3 {
        fill: #e6eddb;
      }

      .cls-4 {
        fill: #e6ffff;
      }

      .cls-5 {
        fill: #f4f9ed;
      }

      .cls-6 {
        fill: #fe6;
      }

      .cls-7 {
        fill: #ffdc43;
      }

      .cls-8 {
        fill: #48ef63;
      }

      .cls-9 {
        clip-path: url(#clippath);
      }
    </style>
    <clipPath id="clippath">
      <rect class="cls-1" x="53.16" y="168.33" width="212.62" height="212.62"/>
    </clipPath>
  </defs>
  <g id="Layer_1-2" data-name="Layer_1">
    <g>
      <path class="cls-4" d="M265.78,522.7H53.16c-28.81-40.33-44.29-88.65-44.3-138.21V8.86h301.22v375.64c0,49.56-15.49,97.88-44.3,138.21Z"/>
      <path class="cls-2" d="M310.08,8.86H35.44v375.64c0,49.56,15.49,97.88,44.3,138.21h186.05c28.81-40.33,44.29-88.65,44.3-138.21V8.86Z"/>
      <path class="cls-5" d="M310.08,62.02H8.86v322.48c0,49.56,15.49,97.88,44.3,138.21h212.62c28.81-40.33,44.29-88.65,44.3-138.21V62.02Z"/>
      <path class="cls-3" d="M310.08,62.02H35.44v322.48c0,49.56,15.49,97.88,44.3,138.21h186.05c28.81-40.33,44.29-88.65,44.3-138.21V62.02Z"/>
      <path class="cls-4" d="M53.16,522.7h212.62v35.44H53.16v-35.44Z"/>
      <path class="cls-2" d="M79.74,522.7h186.05v35.44H79.74v-35.44Z"/>
      <path class="cls-8" d="M97.45,97.45c0,23.5,9.33,46.03,25.95,62.64,16.61,16.61,39.15,25.95,62.65,25.95s46.03-9.33,62.64-25.95c16.62-16.61,25.95-39.15,25.95-62.64H97.45Z"/>
      <path class="cls-6" d="M132.89,97.45c0,14.1,5.6,27.62,15.57,37.59,9.97,9.97,23.49,15.57,37.59,15.57s27.62-5.6,37.59-15.57c9.97-9.97,15.57-23.49,15.57-37.59h-106.31Z"/>
      <path class="cls-7" d="M159.47,143.52c8.08,4.66,17.25,7.11,26.58,7.11s18.5-2.45,26.58-7.11l-26.58-46.07-26.58,46.07Z"/>
      <path class="cls-8" d="M70.25,336.03c-16.49,16.64-25.73,39.13-25.67,62.56.05,23.43,9.38,45.89,25.95,62.45s39.02,25.9,62.45,25.95c23.43.05,45.92-9.18,62.56-25.67l-125.29-125.29Z"/>
      <path class="cls-6" d="M95.3,361.08c-4.94,4.94-8.85,10.8-11.52,17.25-2.67,6.45-4.05,13.36-4.05,20.34s1.38,13.89,4.05,20.34c2.67,6.45,6.59,12.31,11.52,17.25,4.94,4.94,10.8,8.85,17.25,11.52s13.36,4.05,20.34,4.05,13.89-1.38,20.34-4.05c6.45-2.67,12.31-6.59,17.25-11.52l-75.18-75.18Z"/>
      <path class="cls-7" d="M81.51,412.43c2.41,9.02,7.16,17.26,13.76,23.86,6.61,6.61,14.84,11.35,23.86,13.77l13.76-51.38-51.38,13.76Z"/>
      <path d="M0,0v384.5c-.09,50.45,15.38,99.7,44.3,141.04v41.46h230.34v-41.49c28.92-41.33,44.38-90.57,44.3-141.02V0H0ZM256.92,549.28H62.02v-17.72h194.91v17.72ZM301.22,384.5c.08,46.18-13.89,91.29-40.05,129.35H57.77c-26.16-38.05-40.13-83.17-40.05-129.35V70.88h283.5v313.62ZM301.22,53.16H17.72V17.72h283.5v35.44Z"/>
      <path d="M186.05,194.91c25.84-.03,50.61-10.31,68.88-28.58,18.27-18.27,28.55-43.04,28.58-68.88v-8.86H88.59v8.86c.03,25.84,10.31,50.61,28.58,68.88,18.27,18.27,43.04,28.55,68.88,28.58ZM229.46,106.31c-1.93,9.4-6.86,17.92-14.04,24.28l-14.02-24.28h28.07ZM186.05,115.17l14.02,24.3c-9.1,3.04-18.95,3.04-28.05,0l14.02-24.3ZM170.7,106.31l-14.02,24.28c-7.19-6.36-12.12-14.88-14.05-24.28h28.07ZM124.63,106.31c2.13,14.76,9.51,28.25,20.78,38.01,11.27,9.76,25.68,15.13,40.59,15.13s29.32-5.37,40.59-15.13c11.27-9.76,18.65-23.25,20.78-38.01h17.87c-2.17,19.5-11.45,37.52-26.07,50.61-14.62,13.09-33.56,20.32-53.18,20.32s-38.56-7.24-53.18-20.32c-14.62-13.09-23.9-31.11-26.07-50.61h17.87Z"/>
      <path d="M61.69,331.47c-17.74,18.8-27.29,43.87-26.54,69.71.37,12.79,3.26,25.39,8.49,37.07,5.24,11.68,12.72,22.21,22.03,30.99,9.31,8.78,20.25,15.65,32.21,20.2,11.96,4.55,24.7,6.71,37.49,6.34,25.84-.75,50.32-11.73,68.06-30.52l6.08-6.44-141.75-133.78-6.08,6.44ZM137.68,415.33l20.41,19.26c-7.86,5.51-17.29,8.32-26.88,8.02l6.47-27.28ZM94.96,375.01l20.41,19.26-26.86,8.04c-.87-9.55,1.38-19.13,6.42-27.3h.04ZM120.44,411.24l-6.47,27.31c-8.71-4.04-15.88-10.8-20.41-19.26l26.88-8.04ZM81.88,362.67c-8.61,12.2-12.53,27.09-11.04,41.94,1.49,14.85,8.29,28.67,19.14,38.92,10.86,10.25,25.04,16.23,39.96,16.86,14.92.63,29.56-4.15,41.23-13.45l13,12.27c-14.95,12.78-34.1,19.59-53.77,19.11-19.67-.48-38.46-8.21-52.77-21.71-14.31-13.5-23.12-31.81-24.74-51.41-1.62-19.6,4.06-39.12,15.95-54.79l13.03,12.26Z"/>
      <g class="cls-9">
        <path d="M225.33,219.15H93.6l-40.45,57.1,106.31,104.05,106.31-104.05-40.45-57.1ZM105.61,281.78l31.56,59.18-60.47-59.18h28.9ZM165.73,269.25v-37.58h18.79l15.66,37.58h-34.44ZM199.13,281.78l-33.4,62.63v-62.63h33.4ZM153.21,269.25h-34.45l15.66-37.58h18.79v37.58ZM153.21,281.78v62.63l-33.4-62.63h33.4ZM213.33,281.78h28.9l-60.47,59.18,31.56-59.18ZM245.47,269.25h-31.73l-15.66-37.58h20.77l26.62,37.58ZM100.08,231.68h20.77l-15.66,37.58h-31.73l26.62-37.58Z"/>
      </g>
      <g>
        <path d="M612.22,105.47h-62.02l-59.77,425.14h-64.26l59.77-425.14h-62.02l8.22-53.05h187.54l-7.47,53.05Z"/>
        <path d="M736.25,45.69c59.77,0,88.91,41.84,76.21,130.76l-32.13,230.13c-12.7,88.91-53.05,130.76-112.82,130.76s-88.91-41.84-76.21-130.76l32.13-230.13c11.96-88.91,53.05-130.76,112.82-130.76ZM728.77,98.74c-19.43,0-32.88,18.68-38.85,59.77l-36.61,265.99c-5.98,41.09,1.5,59.77,21.67,59.77s32.88-18.68,38.85-59.77l36.61-265.99c6.72-41.09-1.5-59.77-21.67-59.77Z"/>
        <path d="M879.7,52.42h51.55l36.61,314.56,44.08-314.56h61.27l-67.25,478.19h-61.27l-35.12-256.28-36.61,256.28h-60.52l67.25-478.19Z"/>
        <path d="M1202.48,105.47l-52.3,372.09h32.13l-7.47,53.05h-128.51l7.47-53.05h32.13l52.3-372.09h-32.13l7.47-53.05h128.51l-7.47,53.05h-32.13Z"/>
        <path d="M1372.08,45.69c60.52,0,88.91,45.58,77.71,128.51l-67.99,20.92,4.48-36.61c6.72-41.09-1.49-59.77-21.67-59.77s-32.88,18.68-38.85,59.77l-36.61,265.99c-5.98,41.09,1.49,59.77,21.67,59.77s32.88-18.68,38.85-59.77l4.48-36.61,62.76,20.92c-11.96,82.94-53.05,128.51-113.57,128.51s-88.91-41.84-76.21-130.76l32.13-230.13c11.95-88.91,53.05-130.76,112.82-130.76Z"/>
      </g>
    </g>
  </g>
</svg>